<svg width="143" height="67" viewBox="0 0 143 67" fill="none" xmlns="http://www.w3.org/2000/svg">
<g clip-path="url(#clip0_103_153)">
<path fill-rule="evenodd" clip-rule="evenodd" d="M69.437 47.2154C69.9534 45.7884 70.4698 44.3669 70.9862 42.9455C71.5026 41.5241 72.019 40.1027 72.5354 38.6757L72.5422 38.657L72.5445 38.6507L72.5452 38.6486C75.5256 30.4551 78.506 22.2615 81.4864 14.0455L81.4942 14.0236L81.4943 14.0234C81.7166 13.403 81.8274 13.0938 81.7187 12.9343C81.6105 12.7758 81.2855 12.7653 80.6375 12.7443L80.5683 12.7421C80.3841 12.7354 80.1755 12.7625 79.9661 12.7897C79.4712 12.854 78.9716 12.9188 78.7781 12.5398C78.6125 12.2155 79.0085 11.8795 79.3885 11.5571C79.5351 11.4327 79.6793 11.3104 79.788 11.1915C81.7129 9.10322 83.6546 7.02317 85.5979 4.94142L85.5981 4.9412L85.5984 4.94086L85.5994 4.93972L85.6015 4.93758C86.8775 3.57055 88.1543 2.20278 89.4275 0.831494C89.5917 0.670685 89.7376 0.491897 90.0293 0.134307L90.139 0C90.2505 0.646588 90.3587 1.25552 90.4626 1.8397C90.6368 2.81891 90.7985 3.72856 90.9423 4.6294C91.3324 6.87668 91.6997 9.12396 92.0669 11.3937C92.2734 12.6747 92.2275 12.7421 90.9193 12.7646C90.5349 12.7723 90.2292 12.7653 89.9822 12.7597C89.5061 12.7488 89.2482 12.7429 89.0654 12.8572C88.8495 12.9923 88.7386 13.2953 88.4965 13.9562C88.4343 14.126 88.3634 14.3195 88.2799 14.5399C86.2605 19.8878 84.2353 25.2301 82.2101 30.5723C80.1844 35.9159 78.1587 41.2594 76.1387 46.6086C75.3125 48.7885 74.5321 50.9683 73.7747 53.1707C73.4993 53.9572 73.1092 54.3168 72.2141 54.2943C70.1484 54.2494 68.0828 54.2494 66.0172 54.2943C65.2598 54.3168 64.9385 54.0246 64.6861 53.3729C61.6335 45.2602 58.5581 37.17 55.4826 29.0798C55.2301 28.4281 55.1842 28.0461 56.1023 28.0685C57.9384 28.1135 59.7745 28.091 61.6106 28.0685C62.1155 28.0685 62.4598 28.1809 62.6434 28.7203C63.5155 31.2821 64.408 33.8439 65.3006 36.4057C65.7469 37.6868 66.1932 38.9678 66.6369 40.2488C67.0387 41.4067 67.4406 42.5703 67.8424 43.7338C68.2439 44.8962 68.6453 46.0586 69.0468 47.2154C69.2304 47.1929 69.3222 47.1929 69.437 47.2154ZM119.838 0.314625C120.202 1.47804 120.37 2.65216 120.537 3.82221V3.82264V3.82309V3.82354C120.612 4.34812 120.687 4.87188 120.779 5.39348C120.974 6.46097 121.135 7.53407 121.295 8.60718C121.456 9.68023 121.617 10.7533 121.812 11.8207C121.949 12.5398 121.766 12.7421 121.031 12.7646C118.638 12.8538 118.622 12.8988 117.813 15.0555L117.795 15.1017C117.343 16.3063 116.892 17.5108 116.441 18.715V18.7168C114.924 22.7694 113.408 26.819 111.851 30.8552C111.089 32.825 110.357 34.8015 109.626 36.777V36.7778V36.7787L109.625 36.7795C108.464 39.9191 107.303 43.0561 106.021 46.1592C105.08 48.4514 104.277 50.7886 103.497 53.1257C103.221 53.9123 102.831 54.2943 101.936 54.2718C99.9162 54.2269 97.8736 54.2269 95.8539 54.2718C95.0965 54.2943 94.6833 54.0471 94.4079 53.3055C91.3784 45.2378 88.3259 37.17 85.2274 29.1023C84.9061 28.2933 85.0897 28.0236 85.9619 28.0236C87.7291 28.0461 89.4734 28.0461 91.2407 28.0236C91.8374 28.0236 92.2276 28.1584 92.4341 28.7877C93.2145 31.3271 94.0407 33.8665 94.9588 36.3385C95.5255 37.8693 96.0631 39.4164 96.6088 40.9867V40.9868V40.9869L96.6089 40.987C97.3449 43.1051 98.0956 45.2654 98.9523 47.4851C99.1688 46.9107 99.3748 46.3781 99.5715 45.8693L99.5718 45.8686C99.8752 45.0837 100.157 44.3559 100.421 43.6197C103.956 33.889 107.49 24.1583 111.025 14.45L111.033 14.4272C111.336 13.591 111.487 13.1752 111.341 12.9658C111.197 12.7588 110.763 12.7535 109.901 12.7429L109.831 12.7421C109.711 12.7421 109.573 12.759 109.433 12.7764C109.036 12.8253 108.613 12.8775 108.477 12.5623C108.339 12.2255 108.666 11.9519 108.973 11.694C109.076 11.6077 109.177 11.5232 109.257 11.4387C112.356 8.09022 115.477 4.74177 118.621 1.39332C118.71 1.30138 118.793 1.20554 118.876 1.10955V1.10938C119.139 0.806559 119.402 0.502302 119.838 0.314625ZM41.8724 53.8C44.0527 52.946 45.6134 51.4403 46.6921 49.3953C46.7293 49.4135 46.7703 49.428 46.8135 49.4433C46.8769 49.4658 46.9452 49.49 47.0135 49.5301C47.0135 49.8447 47.0149 50.1593 47.0163 50.4739C47.0206 51.4178 47.0249 52.3617 46.9905 53.3056C46.9676 54.0247 47.1741 54.3168 47.9545 54.2944C49.5151 54.2494 51.0988 54.2494 52.6595 54.2944C53.3709 54.3168 53.6005 54.0472 53.6005 53.373C53.6081 50.6669 53.6132 47.9584 53.6183 45.249C53.6285 39.8357 53.6387 34.4191 53.6693 29.0125C53.6693 28.2709 53.4398 28.0012 52.6824 28.0236C51.1217 28.0686 49.5381 28.0686 47.9774 28.0236C47.1282 28.0012 46.9216 28.3158 46.9446 29.0799C46.9938 29.9793 46.9844 30.8673 46.975 31.7519C46.9713 32.1051 46.9675 32.4577 46.9675 32.8104C45.9347 31.3496 44.879 30.1136 43.4331 29.2147C39.6002 26.8101 32.4624 27.1697 28.8131 31.7991C25.2557 36.2936 24.9803 44.4737 28.1475 49.5301C30.9705 54.0247 37.1903 55.6203 41.8724 53.8ZM34.4132 46.4289C33.128 44.8783 32.8984 43.058 32.8755 40.586C32.8984 38.9679 33.3116 36.9678 34.987 35.2824C37.6723 32.5632 44.1216 32.9452 46.1184 37.1701C47.5184 40.0691 47.2889 45.0805 44.3282 47.3727C41.5052 49.5526 36.6624 49.1706 34.4132 46.4289ZM19.7738 29.7939C19.5978 29.7889 19.4252 29.784 19.2424 29.799C17.544 30.0012 16.3735 29.754 15.5932 27.8438C14.5833 25.3718 10.2226 24.8999 8.22583 26.7651C6.89465 28.0236 6.91761 30.8102 8.31763 32.0013C10.1078 33.507 12.1734 34.4284 14.4686 35.0351C17.567 35.8666 20.5736 36.9903 22.6851 39.5746C24.3147 41.5747 24.6589 43.9344 24.2917 46.3839C23.7179 50.3841 21.2392 52.8561 17.3834 53.9123C12.7702 55.1708 8.29468 54.7887 4.23231 52.0246C2.05194 50.5414 0.858473 48.4064 0.192887 45.9344C-0.0366253 45.058 0.169936 44.6085 1.24864 44.6535C2.87818 44.7209 4.53067 44.6984 6.18317 44.6535C6.8717 44.631 7.23892 44.8108 7.46844 45.5524C8.38649 48.5862 11.1865 50.0245 14.3079 49.193C17.0621 48.4514 18.1178 44.8333 16.2129 42.7208C15.0227 41.4098 13.4191 40.8503 11.8215 40.2928C11.6939 40.2483 11.5663 40.2038 11.439 40.1589C10.8553 39.9477 10.2663 39.7468 9.67693 39.5457H9.67684H9.67676C8.13416 39.0194 6.58873 38.4922 5.12741 37.7768C1.06503 35.7542 -0.518602 32.5856 0.146984 27.709C0.583058 24.4954 3.68148 21.6188 7.46844 20.8323C11.2783 20.0233 15.0194 20.0907 18.508 21.911C21.331 23.3942 23.1441 25.7314 23.6261 28.9225C23.7409 29.5967 23.5573 29.799 22.8917 29.799C22.2661 29.784 21.6405 29.7889 21.0081 29.7939H21.008C20.6892 29.7964 20.3688 29.799 20.0457 29.799C19.9531 29.799 19.863 29.7964 19.7738 29.7939ZM129.684 43.938C129.477 44.453 129.27 44.9681 129.064 45.5074C128.655 45.281 128.535 44.9737 128.417 44.669C128.382 44.5805 128.348 44.4923 128.306 44.4063C127.837 43.2571 127.368 42.109 126.898 40.9616C125.257 36.948 123.619 32.9421 121.995 28.9225C121.719 28.2259 121.352 28.0011 120.641 28.0236C119.316 28.0573 118.004 28.0531 116.686 28.0489C116.246 28.0475 115.804 28.0461 115.362 28.0461C114.7 28.0573 114.367 28.0629 114.267 28.218C114.167 28.3746 114.305 28.6836 114.582 29.3045C115.621 31.6376 116.657 33.9728 117.691 36.3075C119.946 41.3941 122.2 46.478 124.497 51.5302C125.139 52.9459 125.162 54.1145 124.451 55.5303C123.282 57.9152 122.193 60.3339 121.103 62.7545C120.653 63.7552 120.202 64.7563 119.746 65.7555C119.733 65.7824 119.72 65.8095 119.708 65.8367C119.485 66.3093 119.249 66.8117 120.182 66.8117C121.077 66.8117 121.978 66.806 122.879 66.8004C123.779 66.7948 124.68 66.7892 125.575 66.7892C126.493 66.7892 126.998 66.3397 127.365 65.5082C127.81 64.482 128.217 63.4391 128.624 62.3957C129.161 61.0171 129.699 59.6376 130.326 58.2945C131.299 56.2308 132.158 54.1208 133.019 52.0061C133.499 50.8277 133.979 49.6479 134.48 48.4739C137.257 41.9343 140.058 35.4172 142.858 28.9C143.156 28.2483 142.995 28.0461 142.284 28.0461C141.813 28.0461 141.343 28.0475 140.874 28.0489C139.469 28.0531 138.072 28.0573 136.661 28.0236C135.949 28.0011 135.605 28.2483 135.353 28.9225C133.632 33.5955 131.865 38.2461 130.098 42.8967L130.097 42.9006C129.959 43.2512 129.821 43.5946 129.684 43.938Z" fill="url(#paint0_linear_103_153)"/>
</g>
<defs>
<linearGradient id="paint0_linear_103_153" x1="113.482" y1="8.84272" x2="13.4793" y2="67.1806" gradientUnits="userSpaceOnUse">
<stop stop-color="#F9FE4E"/>
<stop offset="1" stop-color="#42B07B"/>
</linearGradient>
<clipPath id="clip0_103_153">
<rect width="143" height="67" fill="white"/>
</clipPath>
</defs>
</svg>